SplineFontDB: 3.2
FontName: Apollo
FullName: Apollo
FamilyName: Apollo
Weight: Regular
Copyright: Copyright (c) 2025, lucoalove\nApollo is made available under CC BY-SA
UComments: "2025-3-12: Created with FontForge (http://fontforge.org)"
Version: 001.000
ItalicAngle: 0
UnderlinePosition: -100
UnderlineWidth: 50
Ascent: 800
Descent: 200
InvalidEm: 0
LayerCount: 2
Layer: 0 0 "Back" 1
Layer: 1 0 "Fore" 0
XUID: [1021 681 -1272466032 3114616]
StyleMap: 0x0000
FSType: 0
OS2Version: 0
OS2_WeightWidthSlopeOnly: 0
OS2_UseTypoMetrics: 1
CreationTime: 1741812626
ModificationTime: 1758775647
OS2TypoAscent: 0
OS2TypoAOffset: 1
OS2TypoDescent: 0
OS2TypoDOffset: 1
OS2TypoLinegap: 90
OS2WinAscent: 0
OS2WinAOffset: 1
OS2WinDescent: 0
OS2WinDOffset: 1
HheadAscent: 0
HheadAOffset: 1
HheadDescent: 0
HheadDOffset: 1
OS2Vendor: 'PfEd'
MarkAttachClasses: 1
DEI: 91125
LangName: 1033
Encoding: ISO8859-1
UnicodeInterp: none
NameList: AGL For New Fonts
DisplaySize: -48
AntiAlias: 1
FitToEm: 0
WinInfo: 44 22 10
BeginPrivate: 0
EndPrivate
Grid
-50 -200 m 1
 800 -200 l 1025
-50 -150 m 1
 800 -150 l 1025
-50 -100 m 1
 800 -100 l 1025
-50 -50 m 1
 800 -50 l 1025
-50 0 m 1
 800 0 l 1025
-50 50 m 1
 800 50 l 1025
-50 100 m 1
 800 100 l 1025
-50 150 m 1
 800 150 l 1025
-50 200 m 1
 800 200 l 1025
-50 250 m 1
 800 250 l 1025
-50 300 m 1
 800 300 l 1025
-50 350 m 1
 800 350 l 1025
-50 400 m 1
 800 400 l 1025
-50 450 m 1
 800 450 l 1025
-50 500 m 1
 800 500 l 1025
-50 550 m 1
 800 550 l 1025
-50 600 m 1
 800 600 l 1025
-50 650 m 1
 800 650 l 1025
-50 700 m 1
 800 700 l 1025
-50 750 m 1
 800 750 l 1025
-50 800 m 1
 800 800 l 1025
-50 -200 m 1
 -50 800 l 1025
0 -200 m 1
 0 800 l 1025
50 -200 m 1
 50 800 l 1025
100 -200 m 1
 100 800 l 1025
150 -200 m 1
 150 800 l 1025
200 -200 m 1
 200 800 l 1025
250 -200 m 1
 250 800 l 1025
300 -200 m 1
 300 800 l 1025
350 -200 m 1
 350 800 l 1025
400 -200 m 1
 400 800 l 1025
450 -200 m 1
 450 800 l 1025
500 -200 m 1
 500 800 l 1025
550 -200 m 1
 550 800 l 1025

StartChar: O
Encoding: -1 79 0
Width: 514
Flags: HW
HStem: 0 96<182.978 327.1> 352 96<186.9 327.1>
VStem: 33 96<149.2 298.231> 385 96<149.769 298.231>
LayerCount: 2
Fore
SplineSet
125 640 m 1029
384 224 m 6
 384 128 305 96 257 96 c 4
 209 96 128 128 128 224 c 6
 128 416 l 6
 128 511.873411979 208 544 256 544 c 4
 304 544 384 511.793278883 384 416 c 6
 384 224 l 6
480 416 m 6
 479.333351417 543.996527872 384 640 256 640 c 4
 128 640 31.3333514173 543.996527872 32 416 c 6
 33 224 l 6
 33.6666689269 95.9995660436 129 0 257 0 c 4
 385 0 481.666621457 96.0086803201 481 224 c 6
 480 416 l 6
126 0 m 1029
EndSplineSet
EndChar

StartChar: o
Encoding: -1 111 1
Width: 477
Flags: W
HStem: 0 96<165.978 310.1> 352 96<169.9 310.1>
VStem: 16 96<149.2 298.231> 368 96<149.769 298.231>
LayerCount: 2
Fore
SplineSet
109 0 m 1029
240 352 m 0
 192 352 112 320 112 224 c 4
 112 125.438476562 192 96 240 96 c 4
 288 96 368 128 368 224 c 4
 368 320 288 352 240 352 c 0
240 0 m 4
 112 0 16 96 16 224 c 4
 16 352 112 448 240 448 c 0
 368 448 464 352 464 224 c 4
 464 96 368 0 240 0 c 4
EndSplineSet
EndChar

StartChar: b
Encoding: -1 98 2
Width: 464
Flags: W
HStem: 0 96<164.859 306.107> 352 96<164.859 306.107> 620 20G<32 128>
VStem: 32 96<0 48 131.216 316.784 416 640> 352 96<144.538 303.462>
LayerCount: 2
Fore
SplineSet
128 256 m 1
 128 192 l 0
 128 144 160 96 240 96 c 0
 288 96 352 128 352 224 c 0
 352 320 288 352 240 352 c 0
 160 352 128 304 128 256 c 1
128 0 m 0
 32 0 l 25
 32 640 l 1
 128 640 l 1
 128 416 l 0
 128 416 144 448 240 448 c 0
 368 448 448 352 448 224 c 0
 448 96 368 0 240 0 c 3
 144 0 128 48 128 48 c 0
 128 0 l 0
EndSplineSet
EndChar

StartChar: p
Encoding: -1 112 3
Width: 462
Flags: W
HStem: -192 21G<32 128> 0 96<164.859 306.107> 352 96<164.859 306.107>
VStem: 32 96<-192 48 131.216 316.784 416 448> 352 96<144.538 303.462>
LayerCount: 2
Fore
SplineSet
128 256 m 1
 128 192 l 0
 128 144 160 96 240 96 c 0
 288 96 352 128 352 224 c 0
 352 320 288 352 240 352 c 0
 160 352 128 304 128 256 c 1
128 -192 m 0
 32 -192 l 1
 32 448 l 1
 128 448 l 1
 128 416 l 0
 128 416 144 448 240 448 c 0
 368 448 448 352 448 224 c 0
 448 96 368 0 240 0 c 3
 144 0 128 48 128 48 c 0
 128 -192 l 0
EndSplineSet
EndChar

StartChar: q
Encoding: -1 113 4
Width: 466
Flags: W
HStem: 0 96<157.893 299.141> 352 96<157.893 299.141>
VStem: 16 96<144.538 303.462> 336 96<131.216 192 256 316.784>
LayerCount: 2
Fore
SplineSet
336 256 m 1
 336 192 l 0
 336 144 304 96 224 96 c 0
 176 96 112 128 112 224 c 0
 112 320 176 352 224 352 c 0
 304 352 336 304 336 256 c 1
336 -192 m 0
 432 -192 l 1
 432 448 l 1
 336 448 l 1
 336 416 l 0
 336 416 320 448 224 448 c 0
 96 448 16 352 16 224 c 0
 16 96 96 0 224 0 c 3
 320 0 336 48 336 48 c 0
 336 -192 l 0
EndSplineSet
EndChar

StartChar: d
Encoding: -1 100 5
Width: 465
Flags: W
HStem: 0 96<156.893 298.141> 352 96<156.893 298.141>
VStem: 15 96<144.538 303.462> 335 96<131.216 192 256 316.784>
LayerCount: 2
Fore
SplineSet
335 256 m 1
 335 192 l 0
 335 144 303 96 223 96 c 0
 175 96 111 128 111 224 c 0
 111 320 175 352 223 352 c 0
 303 352 335 304 335 256 c 1
335 0 m 0
 431 0 l 25
 431 640 l 1
 335 640 l 1
 335 416 l 0
 335 416 319 448 223 448 c 0
 95 448 15 352 15 224 c 0
 15 96 95 0 223 0 c 3
 319 0 335 48 335 48 c 0
 335 0 l 0
EndSplineSet
EndChar

StartChar: z
Encoding: -1 122 6
Width: 464
Flags: W
HStem: 0 96<176 432> 352 96<32 288>
LayerCount: 2
Fore
SplineSet
288 352 m 1
 32 352 l 1
 32 448 l 1
 432 448 l 1
 432 352 l 1
 176 96 l 1
 432 96 l 1
 432 0 l 1
 32 0 l 1
 32 96 l 1
 288 352 l 1
EndSplineSet
EndChar

StartChar: s
Encoding: -1 115 7
Width: 414
Flags: W
HStem: 0 96<123.831 297.772> 192 80<125 293> 352 96<116.102 295.466>
VStem: 17 96<110.058 144 287.062 342.765> 305 96<104.772 178.395 304 337.942>
LayerCount: 2
Fore
SplineSet
241 272 m 0
 145 272 113 288 113 320 c 3
 113 352 177 352 207 352 c 0
 273 352 306 336 306 304 c 0
 400 304 l 0
 402 416 305 448 207 448 c 0
 111 448 17 416 17 320 c 3
 17 224 113 192 177 192 c 0
 241 192 305 192 305 144 c 3
 305 96 271 96 209 96 c 0
 143 96 113 112 113 144 c 0
 17 144 l 0
 15 32 111 0 209 0 c 0
 305 0 401 48 401 144 c 3
 401 256 305 272 241 272 c 0
EndSplineSet
EndChar

StartChar: u
Encoding: -1 117 8
Width: 482
Flags: W
HStem: 0 96<173.893 315.141>
VStem: 32 96<145.264 224> 352 96<131.216 192>
LayerCount: 2
Fore
SplineSet
32 224 m 0
 32 96 112 0 240 0 c 3
 336 0 352 48 352 48 c 0
 352 0 l 0
 448 0 l 1
 448 448 l 1
 352 448 l 1
 352 192 l 0
 352 144 320 96 240 96 c 0
 192 96 128 128 128 224 c 0
 128 320 128 361 128 448 c 1
 32 448 l 1
 32 361 32 352 32 224 c 0
EndSplineSet
EndChar

StartChar: a
Encoding: -1 97 9
Width: 463
Flags: W
HStem: 0 96<107.441 160> 160 96<107.393 336> 352 96<143.652 304.558>
VStem: 336 96<160 162.134 256 322.982>
LayerCount: 2
Fore
SplineSet
336 160 m 5
 336 96 l 4
 336 96 144 96 128 96 c 4
 96 96 48 208 336 160 c 5
432 0 m 5
 432 64 432 147.166015625 432 224 c 4
 432 352 384 448 224 448 c 4
 64 448 16 320 32 288 c 4
 128 304 l 4
 128 336 176 352 224 352 c 4
 304 352 336 320 336 256 c 5
 112 288 16 240 16 112 c 7
 16 16 64 0 160 0 c 6
 432 0 l 5
EndSplineSet
EndChar

StartChar: i
Encoding: -1 105 11
Width: 162
Flags: W
HStem: 0 21G<32 128> 428 20G<32 128> 544 96<32 128>
VStem: 32 96<0 448 544 640>
LayerCount: 2
Fore
SplineSet
32 640 m 5
 128 640 l 5
 128 544 l 5
 32 544 l 5
 32 640 l 5
32 448 m 5
 128 448 l 5
 128 0 l 5
 32 0 l 5
 32 448 l 5
EndSplineSet
EndChar

StartChar: l
Encoding: -1 108 12
Width: 191
Flags: W
HStem: 0 96<138.348 176>
LayerCount: 2
Fore
SplineSet
176 0 m 0
 176 96 l 3
 144 96 128 128 128 128 c 5
 128 640 l 1
 32 640 l 1
 32 128 l 7
 32 32 80 0 176 0 c 0
EndSplineSet
EndChar

StartChar: e
Encoding: -1 101 13
Width: 463
Flags: W
HStem: 208 80<128 336>
VStem: 17 95<140.099 208>
LayerCount: 2
Fore
SplineSet
128 288 m 1
 336 288 l 1
 336 384 128 384 128 288 c 1
448 256 m 2
 448 208 l 1
 112 208 l 1
 112 64 304 64 336 144 c 1
 432 144 l 0
 432 96 352 0 241 0 c 0
 96 0 17.9999694838 96.0039060712 17 224 c 0
 16 352 96 448 241 448 c 0
 384 448 448 336 448 256 c 2
EndSplineSet
EndChar

StartChar: c
Encoding: -1 99 14
Width: 463
Flags: W
HStem: 0 96<165.978 309.67> 352 96<169.9 310.221>
VStem: 16 96<149.2 298.231>
LayerCount: 2
Fore
SplineSet
112 0 m 1025
448 288 m 1
 432 368 345.32765674 448 240 448 c 0
 112 448 16 352 16 224 c 0
 16 96 112 0 240 0 c 0
 351.416470585 0 432 80 448 160 c 1
 352 160 l 1
 320 112 278.881820603 96 240 96 c 0
 192 96 112 125.438476562 112 224 c 0
 112 320 192 352 240 352 c 0
 275.086018889 352 320 336 352.809570312 288.209960938 c 1
 448 288 l 1
EndSplineSet
EndChar

StartChar: t
Encoding: -1 116 15
Width: 256
Flags: W
HStem: 0 96<182.516 224> 352 96<16 79 175 240> 620 20G<79.8958 175>
VStem: 80 95<128 352 448 640>
LayerCount: 2
Fore
SplineSet
79 448 m 0
 80 640 l 1
 175 640 l 1
 175 448 l 0
 240 448 l 0
 240 409.987304688 240 352 240 352 c 0
 175 352 l 1
 175 128 l 1
 175 128 192 96 224 96 c 0
 224 0 l 0
 128 0 80 32 80 128 c 0
 79 352 l 1
 16 352 l 1
 16 448 l 1
 79 448 l 0
EndSplineSet
EndChar

StartChar: f
Encoding: -1 102 16
Width: 256
Flags: W
HStem: 544 96<179.538 240>
VStem: 16 224
LayerCount: 2
Fore
SplineSet
79 352 m 0
 80 0 l 1
 175 0 l 1
 175 352 l 0
 240 352 l 0
 240 390.012695312 240 448 240 448 c 0
 175 448 l 1
 175 512 l 5
 175 512 176 544 240 544 c 4
 240 640 l 4
 128 640 80 608 80 512 c 4
 79 448 l 1
 16 448 l 1
 16 352 l 1
 79 352 l 0
EndSplineSet
EndChar

StartChar: Iacute
Encoding: -1 205 17
Width: 162
Flags: W
HStem: 0 21G<32 128> 428 20G<32 128> 528 112<64 112>
VStem: 32 96<0 448>
LayerCount: 2
Fore
SplineSet
64 640 m 5
 176 640 l 5
 112 528 l 5
 48 528 l 5
 64 640 l 5
32 448 m 1
 128 448 l 1
 128 0 l 1
 32 0 l 1
 32 448 l 1
EndSplineSet
EndChar

StartChar: odieresis
Encoding: -1 246 18
Width: 477
Flags: W
HStem: 0 96<165.978 310.1> 352 96<169.9 310.1> 480 96<112 208 272 368>
VStem: 16 96<149.2 298.231> 112 96<480 576> 272 96<480 576> 368 96<149.769 298.231>
LayerCount: 2
Fore
SplineSet
272 576 m 5xe4
 368 576 l 5
 368 480 l 5
 272 480 l 5
 272 576 l 5xe4
112 576 m 5xe8
 208 576 l 5
 208 480 l 5
 112 480 l 5
 112 576 l 5xe8
109 0 m 1025
240 352 m 0
 192 352 112 320 112 224 c 0
 112 125.438476562 192 96 240 96 c 0
 288 96 368 128 368 224 c 0xf2
 368 320 288 352 240 352 c 0
240 0 m 0
 112 0 16 96 16 224 c 0
 16 352 112 448 240 448 c 0
 368 448 464 352 464 224 c 0
 464 96 368 0 240 0 c 0
EndSplineSet
EndChar

StartChar: ohungarumlaut
Encoding: -1 337 19
Width: 477
Flags: W
HStem: 0 96<165.978 310.1> 352 96<169.9 310.1> 480 112<144 192 288 336>
VStem: 16 96<149.2 298.231> 368 96<149.769 298.231>
LayerCount: 2
Fore
SplineSet
288 592 m 1
 400 592 l 1
 336 480 l 1
 272 480 l 1
 288 592 l 1
144 592 m 5
 256 592 l 5
 192 480 l 5
 128 480 l 5
 144 592 l 5
109 0 m 1025
240 352 m 0
 192 352 112 320 112 224 c 0
 112 125.438476562 192 96 240 96 c 0
 288 96 368 128 368 224 c 0
 368 320 288 352 240 352 c 0
240 0 m 0
 112 0 16 96 16 224 c 0
 16 352 112 448 240 448 c 0
 368 448 464 352 464 224 c 0
 464 96 368 0 240 0 c 0
EndSplineSet
EndChar

StartChar: uhungarumlaut
Encoding: -1 369 20
Width: 482
Flags: W
HStem: 0 96<173.893 315.141> 480 112<144 192 288 336>
VStem: 32 96<145.264 224> 352 96<131.216 192>
LayerCount: 2
Fore
SplineSet
288 592 m 1
 400 592 l 1
 336 480 l 1
 272 480 l 1
 288 592 l 1
144 592 m 1
 256 592 l 1
 192 480 l 1
 128 480 l 1
 144 592 l 1
32 224 m 0
 32 96 112 0 240 0 c 3
 336 0 352 48 352 48 c 0
 352 0 l 0
 448 0 l 1
 448 448 l 1
 352 448 l 1
 352 192 l 0
 352 144 320 96 240 96 c 0
 192 96 128 128 128 224 c 0
 128 320 128 361 128 448 c 1
 32 448 l 1
 32 361 32 352 32 224 c 0
EndSplineSet
EndChar

StartChar: uacute
Encoding: -1 250 21
Width: 482
Flags: W
HStem: 0 96<173.893 315.141> 480 112<224 272>
VStem: 32 96<145.264 224> 352 96<131.216 192>
LayerCount: 2
Fore
SplineSet
224 592 m 5
 336 592 l 5
 272 480 l 5
 208 480 l 5
 224 592 l 5
32 224 m 0
 32 96 112 0 240 0 c 3
 336 0 352 48 352 48 c 0
 352 0 l 0
 448 0 l 1
 448 448 l 1
 352 448 l 1
 352 192 l 0
 352 144 320 96 240 96 c 0
 192 96 128 128 128 224 c 0
 128 320 128 361 128 448 c 1
 32 448 l 1
 32 361 32 352 32 224 c 0
EndSplineSet
EndChar

StartChar: udieresis
Encoding: -1 252 22
Width: 482
Flags: W
HStem: 0 96<173.893 315.141> 480 96<112 208 272 368>
VStem: 32 96<145.264 224> 112 96<480 576> 272 96<480 576> 352 96<131.216 192>
LayerCount: 2
Fore
SplineSet
272 576 m 1xc8
 368 576 l 1
 368 480 l 1
 272 480 l 1
 272 576 l 1xc8
112 576 m 1xd0
 208 576 l 1
 208 480 l 1
 112 480 l 1
 112 576 l 1xd0
32 224 m 0xe4
 32 96 112 0 240 0 c 3
 336 0 352 48 352 48 c 0
 352 0 l 0
 448 0 l 1
 448 448 l 1
 352 448 l 1
 352 192 l 0
 352 144 320 96 240 96 c 0
 192 96 128 128 128 224 c 0
 128 320 128 361 128 448 c 1
 32 448 l 1
 32 361 32 352 32 224 c 0xe4
EndSplineSet
EndChar

StartChar: oacute
Encoding: -1 243 23
Width: 477
Flags: W
HStem: 0 96<165.978 310.1> 352 96<169.9 310.1> 480 112<224 272>
VStem: 16 96<149.2 298.231> 368 96<149.769 298.231>
LayerCount: 2
Fore
SplineSet
224 592 m 1
 336 592 l 1
 272 480 l 1
 208 480 l 1
 224 592 l 1
109 0 m 1025
240 352 m 0
 192 352 112 320 112 224 c 0
 112 125.438476562 192 96 240 96 c 0
 288 96 368 128 368 224 c 0
 368 320 288 352 240 352 c 0
240 0 m 0
 112 0 16 96 16 224 c 0
 16 352 112 448 240 448 c 0
 368 448 464 352 464 224 c 0
 464 96 368 0 240 0 c 0
EndSplineSet
EndChar

StartChar: g
Encoding: -1 103 24
Width: 491
Flags: W
HStem: 0 96<166.058 310.1> 352 96<171.797 311.996>
VStem: 16 96<147.936 298.231> 368 96<149.769 298.762>
LayerCount: 2
Fore
SplineSet
464 -96 m 1
 112 -96 l 1
 144 16 l 1
 192 0 193.010992894 0 240 0 c 0
 368 0 464 96 464 224 c 0
 464 271.431226782 455.107421875 316.61328125 432 352 c 1
 464 352 l 0
 464 377 464 423 464 448 c 0
 464 448 320.568773218 448 240 448 c 0
 112 448 16 352 16 224 c 0
 16 142.989007106 48 112 80 64 c 1
 16 -96 l 2
 -23.724137931 -195.310344828 0 -192 128 -192 c 2
 464 -192 l 1
 464 -96 l 1
240 352 m 0
 288 352 368 320 368 224 c 0
 368 128 288 96 240 96 c 0
 192 96 112 125.438476562 112 224 c 0
 112 320 192 352 240 352 c 0
EndSplineSet
EndChar

StartChar: r
Encoding: -1 114 25
Width: 337
Flags: W
HStem: 0 21G<32 128> 352 96<161.909 310.624>
VStem: 32 96<0 318.156 416 448>
LayerCount: 2
Fore
SplineSet
304 336 m 1
 288 352 240 352 224 352 c 3
 176 352 128 320 128 256 c 2
 128 0 l 1
 32 0 l 1
 32 448 l 1
 128 448 l 1
 128 416 l 0
 128 416 144 448 240 448 c 3
 266.823282388 448 320 435 336 416 c 1
 304 336 l 1
EndSplineSet
EndChar

StartChar: h
Encoding: -1 104 26
Width: 448
Flags: W
HStem: 352 96<164.184 305.808>
VStem: 32 96<256 318.156> 336 96<224 318.027>
LayerCount: 2
Fore
SplineSet
432 224 m 7
 432 352 400 448 240 448 c 7
 144 448 128 416 128 416 c 4
 128 640 l 5
 32 640 l 5
 32 0 l 5
 128 0 l 5
 128 256 l 6
 128 320 176 352 240 352 c 7
 304 352 336 320 336 224 c 4
 336 0 l 5
 432 0 l 5
 432 224 l 7
EndSplineSet
EndChar

StartChar: n
Encoding: -1 110 27
Width: 448
Flags: W
HStem: 352 96<164.184 305.808>
VStem: 32 96<256 318.156> 336 96<224 318.027>
LayerCount: 2
Fore
SplineSet
432 224 m 3
 432 352 400 448 240 448 c 3
 144 448 128 416 128 416 c 0
 128 448 l 1
 32 448 l 1
 32 0 l 1
 128 0 l 1
 128 256 l 2
 128 320 176 352 240 352 c 3
 304 352 336 320 336 224 c 0
 336 0 l 1
 432 0 l 1
 432 224 l 3
EndSplineSet
EndChar

StartChar: aacute
Encoding: -1 225 28
Width: 447
Flags: W
HStem: 0 96<107.441 160> 160 96<107.393 336> 352 96<143.652 304.558> 480 112<224 272>
VStem: 336 96<160 162.134 256 322.982>
LayerCount: 2
Fore
SplineSet
224 592 m 1
 336 592 l 1
 272 480 l 1
 208 480 l 1
 224 592 l 1
336 160 m 1
 336 96 l 0
 336 96 144 96 128 96 c 0
 96 96 48 208 336 160 c 1
432 0 m 1
 432 64 432 147.166015625 432 224 c 0
 432 352 384 448 224 448 c 0
 64 448 16 320 32 288 c 0
 128 304 l 0
 128 336 176 352 224 352 c 0
 304 352 336 320 336 256 c 1
 112 288 16 240 16 112 c 3
 16 16 64 0 160 0 c 2
 432 0 l 1
EndSplineSet
EndChar

StartChar: adieresis
Encoding: -1 228 29
Width: 447
Flags: W
HStem: 0 96<107.441 160> 160 96<107.393 336> 352 96<143.652 304.558> 480 96<112 208 272 368>
VStem: 112 96<480 576> 272 96<480 576> 336 96<160 162.134 256 322.982>
LayerCount: 2
Fore
SplineSet
272 576 m 1xfc
 368 576 l 1
 368 480 l 1
 272 480 l 1
 272 576 l 1xfc
112 576 m 1
 208 576 l 1
 208 480 l 1
 112 480 l 1
 112 576 l 1
336 160 m 1xfa
 336 96 l 0
 336 96 144 96 128 96 c 0
 96 96 48 208 336 160 c 1xfa
432 0 m 1
 432 64 432 147.166015625 432 224 c 0
 432 352 384 448 224 448 c 0
 64 448 16 320 32 288 c 0
 128 304 l 0
 128 336 176 352 224 352 c 0
 304 352 336 320 336 256 c 1
 112 288 16 240 16 112 c 3
 16 16 64 0 160 0 c 2
 432 0 l 1
EndSplineSet
EndChar

StartChar: j
Encoding: -1 106 30
Width: 162
Flags: HW
HStem: -192 96<-32 28.4622> 544 96<32 128>
VStem: 32 96<544 640>
LayerCount: 2
Fore
SplineSet
128 -64 m 0
 128 448 l 1
 32 448 l 5
 32 448 31 -64 32 -64 c 1
 32 -64 32 -96 -32 -96 c 0
 -32 -192 l 0
 80 -192 128 -160 128 -64 c 0
32 640 m 1
 128 640 l 1
 128 544 l 1
 32 544 l 1
 32 640 l 1
EndSplineSet
EndChar

StartChar: m
Encoding: -1 109 31
Width: 672
Flags: W
HStem: 352 96<151.384 264.427 406.798 519.085>
VStem: 32 96<224 328.271> 288 96<224 328.271> 544 96<224 327.865>
CounterMasks: 1 70
LayerCount: 2
Fore
SplineSet
336 400 m 1
 322 416 288 448 224 448 c 3
 128 448 128 416 128 416 c 0
 128 448 l 1
 32 448 l 1
 32 0 l 1
 128 0 l 1
 128 224 l 2
 128 336 160 352 208 352 c 3
 256 352 288 336 288 224 c 0
 288 0 l 1
 384 0 l 1
 384 224 l 2
 384 336 416 352 464 352 c 3
 512 352 544 336 544 224 c 0
 544 0 l 1
 640 0 l 1
 640 224 l 3
 640 352 624 448 464 448 c 3
 368.55791441 448 354 416 336 400 c 1
EndSplineSet
EndChar

StartChar: k
Encoding: -1 107 32
Width: 464
Flags: W
HStem: 0 21G<32 128 340 448> 160 96<128 256 352 352> 428 20G<240 352> 620 20G<32 128>
VStem: 32 96<0 160 256 292.722 384 640> 352 96<256 344.453>
LayerCount: 2
Fore
SplineSet
128 256 m 0
 352 256 l 0
 384 448 128 320 128 256 c 0
352 0 m 1
 256 160 l 3
 160 160 128 160 128 160 c 0
 128 0 l 0
 32 0 l 25
 32 640 l 1
 128 640 l 1
 128 384 l 0
 128 384 192 448 288 448 c 0
 416 448 448 384 448 256 c 0
 448 160 432 160 352 160 c 1
 448 0 l 1
 352 0 l 1
EndSplineSet
EndChar

StartChar: v
Encoding: -1 118 33
Width: 415
Flags: W
HStem: 0 21G<152.857 263.098> 428 20G<0 103.368 312.632 415>
LayerCount: 2
Fore
SplineSet
320 448 m 4
 415 448 l 5
 256 0 l 5
 160 0 l 5
 0 448 l 5
 96 448 l 5
 208 144 l 5
 320 448 l 4
EndSplineSet
EndChar

StartChar: y
Encoding: -1 121 34
Width: 415
Flags: W
HStem: -192 96<72 129.349> 428 20G<0 103.368 312.632 415>
LayerCount: 2
Fore
SplineSet
232 -64 m 2
 200.438356164 -148.164383562 184 -192 72 -192 c 0
 72 -96 l 1
 125.5 -96 125.5 -96 160 0 c 1
 0 448 l 1
 96 448 l 1
 208 144 l 1
 320 448 l 0
 415 448 l 1
 256 0 l 1
 232 -64 l 2
EndSplineSet
EndChar

StartChar: x
Encoding: -1 120 35
Width: 415
Flags: W
LayerCount: 2
Fore
SplineSet
256 224 m 1
 415 448 l 1
 304 448 l 0
 208 304 l 1
 112 448 l 1
 0 448 l 1
 160 224 l 1
 0 0 l 1
 112 0 l 5
 208 144 l 1
 304 0 l 0
 415 0 l 1
 256 224 l 1
EndSplineSet
EndChar

StartChar: w
Encoding: -1 119 36
Width: 672
Flags: W
HStem: 0 21G<152.857 262.667 409.333 519.098> 428 20G<0 103.368 568.632 671>
LayerCount: 2
Fore
SplineSet
288 384 m 1
 384 384 l 1
 464 144 l 1
 576 448 l 0
 671 448 l 1
 512 0 l 1
 416 0 l 1
 336 240 l 1
 256 0 l 1
 160 0 l 1
 0 448 l 1
 96 448 l 1
 208 144 l 1
 288 384 l 1
EndSplineSet
EndChar

StartChar: comma
Encoding: -1 44 37
Width: 162
Flags: HW
LayerCount: 2
Fore
SplineSet
32 80 m 5
 144 80 l 5
 98 -80 l 5
 32 -80 l 5
 32 80 l 5
EndSplineSet
EndChar

StartChar: period
Encoding: -1 46 38
Width: 162
Flags: HW
LayerCount: 2
Fore
SplineSet
32 96 m 1
 128 96 l 1
 128 0 l 1
 32 0 l 1
 32 96 l 1
EndSplineSet
EndChar

StartChar: exclam
Encoding: -1 33 39
Width: 162
Flags: HW
HStem: 0 21G<32 128> 428 20G<32 128> 544 96<32 128>
VStem: 32 96<0 448 544 640>
LayerCount: 2
Fore
SplineSet
32 0 m 5
 128 0 l 5
 128 96 l 5
 32 96 l 5
 32 0 l 5
32 192 m 5
 128 192 l 5
 128 640 l 5
 32 640 l 5
 32 192 l 5
EndSplineSet
EndChar

StartChar: colon
Encoding: -1 58 40
Width: 162
Flags: HW
HStem: 0 21G<32 128> 428 20G<32 128> 544 96<32 128>
VStem: 32 96<0 448 544 640>
LayerCount: 2
Fore
SplineSet
32 48 m 1
 128 48 l 1
 128 144 l 1
 32 144 l 1
 32 48 l 1
32 240 m 1
 128 240 l 1
 128 336 l 1
 32 336 l 1
 32 240 l 1
EndSplineSet
EndChar

StartChar: semicolon
Encoding: -1 59 41
Width: 162
Flags: HW
HStem: 0 21G<32 128> 428 20G<32 128> 544 96<32 128>
VStem: 32 96<0 448 544 640>
LayerCount: 2
Fore
SplineSet
32 144 m 1
 144 144 l 5
 98 -16 l 1
 32 -16 l 1
 32 144 l 1
32 240 m 1
 128 240 l 1
 128 336 l 1
 32 336 l 1
 32 240 l 1
EndSplineSet
EndChar

StartChar: A
Encoding: -1 65 42
Width: 543
Flags: HW
HStem: 0 21G<152.857 263.098> 428 20G<0 103.368 312.632 415>
LayerCount: 2
Fore
SplineSet
208 288 m 1
 336 288 l 1
 272 480 l 1
 208 288 l 1
185 208 m 1
 112 0 l 1
 0 0 l 1
 224 640 l 1
 320 640 l 1
 544 0 l 1
 432 0 l 0
 359 208 l 1
 185 208 l 1
EndSplineSet
EndChar

StartChar: B
Encoding: -1 66 43
Width: 479
Flags: HW
HStem: 0 96<164.859 306.107> 352 96<164.859 306.107> 620 20G<32 128>
VStem: 32 96<0 48 131.216 316.784 416 640> 352 96<144.538 303.462>
LayerCount: 2
Fore
SplineSet
128 320 m 1
 128 320 160 320 240 320 c 0
 288 320 352 320 352 224 c 2
 352 96 l 2
 128 96 l 1
 128 320 l 1
240 544 m 2
 320 544 336 464 304 416 c 1
 304 416 304 416 240 416 c 0
 144 416 128 416 128 416 c 0
 128 544 l 1
 240 544 l 2
416 432 m 2
 440.615234375 555.077148438 345.481445312 640 256 640 c 2
 128 640 l 1
 32 640 l 1
 32 0 l 1
 448 0 l 17
 448 0 448 96 448 224 c 0
 448 279.583541462 448 336 400 368 c 1
 416 432 l 2
EndSplineSet
EndChar

StartChar: D
Encoding: -1 68 44
Width: 479
Flags: HW
LayerCount: 2
Fore
SplineSet
128 544 m 1
 128 544 160 544 240 544 c 0
 288 544 352 544 352 448 c 2
 352 96 l 2
 128 96 l 1
 128 544 l 1
240 640 m 2
 32 640 l 1
 32 0 l 1
 448 0 l 1
 448 0 448 320 448 448 c 0
 448 528 416 640 240 640 c 2
EndSplineSet
EndChar

StartChar: E
Encoding: -1 69 45
Width: 479
Flags: HW
LayerCount: 2
Fore
SplineSet
128 272 m 1
 128 96 l 1
 448 96 l 1
 448 0 l 1
 32 0 l 1
 32 640 l 1
 448 640 l 17
 448 544 l 0
 128 544 l 1
 128 368 l 1
 384 368 l 21
 384 272 l 4
 128 272 l 1
EndSplineSet
EndChar

StartChar: F
Encoding: -1 70 46
Width: 479
Flags: HW
LayerCount: 2
Fore
SplineSet
128 272 m 5
 384 272 l 0
 384 368 l 9
 128 368 l 1
 128 544 l 1
 448 544 l 0
 448 640 l 9
 32 640 l 1
 32 0 l 1
 128 0 l 1
 128 272 l 5
EndSplineSet
EndChar

StartChar: I
Encoding: -1 73 47
Width: 162
Flags: HW
HStem: 0 21G<32 128> 428 20G<32 128> 544 96<32 128>
VStem: 32 96<0 448 544 640>
LayerCount: 2
Fore
SplineSet
128 0 m 5
 32 0 l 1
 32 640 l 1
 128 640 l 1
 128 0 l 5
EndSplineSet
EndChar

StartChar: J
Encoding: -1 74 48
Width: 494
Flags: HW
HStem: -192 96<298 358.462> 544 96<362 458>
VStem: 362 96<544 640>
LayerCount: 2
Fore
SplineSet
107 -192 m 1048
110 32 m 3
 110 -66.5615234375 190 -96 238 -96 c 3
 286 -96 366 -39 366 32 c 27
 366 232 365 544 365 544 c 1
 364.983398438 544 173 544 173 544 c 1
 173 640 l 1
 365 640 l 1
 462 640 l 1
 462 640 462 269 462 32 c 27
 462 -92 366 -192 238 -192 c 3
 110 -192 14 -96 14 32 c 0
 110 32 l 3
EndSplineSet
EndChar

StartChar: L
Encoding: -1 76 49
Width: 479
Flags: HW
LayerCount: 2
Fore
SplineSet
128 96 m 1
 448 96 l 0
 448 0 l 9
 32 0 l 1
 32 640 l 1
 128 640 l 1
 128 96 l 1
EndSplineSet
EndChar

StartChar: Q
Encoding: -1 81 50
Width: 514
Flags: HW
LayerCount: 2
Fore
SplineSet
125 640 m 1025
384 96 m 17
 257 96 l 2
 209 96 128 128 128 224 c 2
 128 416 l 2
 128 511.873411979 208 544 256 544 c 0
 304 544 384 511.784162009 384 416 c 2
 384 96 l 17
480 0 m 1
 480 416 l 2
 480 543.996527872 384 640 256 640 c 0
 128 640 31.3333514173 543.996527872 32 416 c 2
 33 224 l 2
 33.6666689269 95.9995660436 126 0 257 0 c 2
 480 0 l 1
EndSplineSet
EndChar

StartChar: G
Encoding: -1 71 51
Width: 514
Flags: HW
LayerCount: 2
Fore
SplineSet
125 640 m 1025
384 288 m 1
 384 96 l 1
 257 96 l 2
 209 96 128 128 128 224 c 2
 128 416 l 2
 128 511.873411979 208 544 256 544 c 0
 304 544 384 511.784162009 384 416 c 1
 480 416 l 1
 480 543.996527872 384 640 256 640 c 0
 128 640 31.3333514173 543.996527872 32 416 c 2
 33 224 l 2
 33.6666689269 95.9995660436 126 0 257 0 c 2
 480 0 l 1
 480 288 l 1
 384 288 l 1
EndSplineSet
EndChar

StartChar: U
Encoding: -1 85 52
Width: 1000
Flags: HW
LayerCount: 2
Fore
SplineSet
130 170 m 3
 130 20 330 40.5716460293 330 130 c 2
 330 370 l 5
 400 370 l 4
 400 0 l 3
 330 0 l 3
 330 50 l 0
 330 -20 60 -50 60 170 c 0
 60 170 60 301.266601562 60 370 c 4
 130 370 l 7
 130 311.413085938 130 170 130 170 c 3
EndSplineSet
EndChar

StartChar: one
Encoding: 49 49 53
Width: 238
Flags: HW
LayerCount: 2
Fore
SplineSet
70 0 m 1
 170 0 l 0
 170 500 l 0
 70 500 l 1
 70 0 l 1
EndSplineSet
EndChar

StartChar: i
Encoding: 105 105 54
Width: 198
Flags: HW
LayerCount: 2
Fore
SplineSet
100 600 m 9
 100 520 l 1
 20 520 l 1
 21 600 l 17
 100 600 l 9
100 480 m 9
 100 0 l 1
 20 0 l 1
 21 480 l 17
 100 480 l 9
EndSplineSet
EndChar

StartChar: a
Encoding: 97 97 55
Width: 570
Flags: HWO
LayerCount: 2
Fore
SplineSet
419 240 m 1
 419 240 150 246.453125 150 136 c 7
 150 7.7236328125 419 45.4052734375 419 166 c 6
 419 240 l 1
280 400 m 4
 190 390 140 352 140 352 c 0
 105 409 l 1
 105 409 170 460 270 470 c 0
 379.905376896 480.99053769 498.447587708 450.199564693 499 290 c 2
 500 0 l 1
 420 0 l 25
 420 70 l 0
 420 -30.0048828125 70 -70.2379604163 70 140 c 3
 70 320.27734375 419 300 419 300 c 1
 419 310 l 2
 419 395.699458377 340.455587407 406.71728749 280 400 c 4
EndSplineSet
EndChar
